# xmcd CD database file
#
# Track frame offsets:
#	150
#	32305
#	53455
#	61655
#	79854
#	94029
#	122487
#	145475
#	156162
#	184312
#	204212
#	223675
#
# Disc length: 3042 seconds
#
# Revision: 0
# Processed by: cddbd v1.5.2PL0 Copyright (c) Steve Scherf et al.
# Submitted via: CDex 1.50
#
DISCID=980be00c
DTITLE=Gabriele Hasler`s - Rosenstücke
DYEAR=1996
DGENRE=Jazz
TTITLE0=Rosenchor
TTITLE1=Rosenrot
TTITLE2=Notitz I
TTITLE3=Schönes Kind
TTITLE4=Notitz II
TTITLE5=ein Knabe ist ein...
TTITLE6=Dialog an Lamm
TTITLE7=Notitz III
TTITLE8=Rosenstück
TTITLE9=Leb in meinem Garnichts
TTITLE10=Der 13. Wunsch
TTITLE11=eine Reprise ist eine...
EXTD=YEAR: 1996
EXTT0=
EXTT1=
EXTT2=
EXTT3=
EXTT4=
EXTT5=
EXTT6=
EXTT7=
EXTT8=
EXTT9=
EXTT10=
EXTT11=
PLAYORDER=
